<svg class="icon_clickThis" height="24" viewBox="0 0 24 24" width="24" xmlns="http://www.w3.org/2000/svg"><path d="m11 10.5v2.5474376c0 .3309105-.1160145.6513484-.3278583.9055609-.5001274.6001529-1.39208094.6812396-1.9922339.1811121l-.92383404-.7698617c-.28242886-.2353573-.63843378-.3642489-1.00607376-.3642489-.26636474 0-.50917395.1526146-.62467795.3926334l-.03569857.0741821c-.13514483.2808326-.09421319.6146714.10477386.8545365l4.41346766 5.3201284c.7139138.8605736 1.7739848 1.3585196 2.892135 1.3585196 2.4852814 0 4.5-2.0147186 4.5-4.5v-4c0-.2761424-.2238576-.5-.5-.5s-.5.2238576-.5.5v1c0 .2761424-.2238576.5-.5.5s-.5-.2238576-.5-.5v-2c0-.2761424-.2238576-.5-.5-.5s-.5.2238576-.5.5v2c0 .2761424-.2238576.5-.5.5s-.5-.2238576-.5-.5v-3c0-.2761424-.2238576-.5-.5-.5s-.5.2238576-.5.5v3c0 .2761424-.2238576.5-.5.5s-.5-.2238576-.5-.5v-8c0-.27614237-.2238576-.5-.5-.5s-.5.22385763-.5.5zm-1-.0000002v-1.83690391c-1.20724718-.57280412-2-1.79463977-2-3.16309589 0-1.93299662 1.56700338-3.5 3.5-3.5 1.9329966 0 3.5 1.56700338 3.5 3.5 0 1.36855757-.7928684 2.59036134-2 3.16309811v.42225474c.1563895-.05527574.3246823-.08535285.5-.08535285.691734 0 1.2741062.46823386 1.4474595 1.1050446.1709946-.0677878.3574166-.1050446.5525405-.1050446.691734 0 1.2741062.4682339 1.4474595 1.1050446.1709946-.0677878.3574166-.1050446.5525405-.1050446.8284271 0 1.5.6715729 1.5 1.5v4c0 3.0375661-2.4624339 5.5-5.5 5.5-1.4157067 0-2.7578784-.6304569-3.66177543-1.720042l-4.41346762-5.3201284c-.44863787-.5408018-.54092268-1.2934775-.23622403-1.9266451l.03569858-.0741821c.28211715-.5862429.87517576-.9590024 1.5257685-.9590024.60157648 0 1.1841143.2109078 1.64625816.5960277l.92383404.7698617c.17587606.1465633.43726488.1228007.58382826-.0530753.06208125-.0744975.09607954-.1684025.09607954-.2653765v-2.5474376zm3-2.9992919c.6164427-.46257462 1-1.19610802 1-2.0007079 0-1.38071187-1.1192881-2.5-2.5-2.5s-2.5 1.11928813-2.5 2.5c0 .80455447.38351068 1.5381 1 2.00070513v-2.00070513c0-.82842712.6715729-1.5 1.5-1.5s1.5.67157288 1.5 1.5z"/></svg>