<svg class="icon_scrollV" height="24" viewBox="0 0 24 24" width="24" xmlns="http://www.w3.org/2000/svg"><path d="m7 9.29289322 1.14644661-1.14644661c.19526215-.19526215.51184463-.19526215.70710678 0s.19526215.51184463 0 .70710678l-2 2.00000001c-.19526215.1952621-.51184463.1952621-.70710678 0l-2-2.00000001c-.19526215-.19526215-.19526215-.51184463 0-.70710678s.51184463-.19526215.70710678 0l1.14644661 1.14644661v-5.58578644l-1.14644661 1.14644661c-.19526215.19526215-.51184463.19526215-.70710678 0s-.19526215-.51184463 0-.70710678l2-2c.19526215-.19526215.51184463-.19526215.70710678 0l2 2c.19526215.19526215.19526215.51184463 0 .70710678s-.51184463.19526215-.70710678 0l-1.14644661-1.14644661zm7 .20710678v2.5474376c0 .3309105-.1160145.6513484-.3278583.9055609-.5001274.6001529-1.3920809.6812396-1.9922339.1811121l-.923834-.7698617c-.2824289-.2353573-.6384338-.3642489-1.0060738-.3642489-.26636474 0-.50917395.1526146-.62467795.3926334l-.03569857.0741821c-.13514483.2808326-.09421319.6146714.10477386.8545365l4.41346766 5.3201284c.7139138.8605736 1.7739848 1.3585196 2.892135 1.3585196 2.4852814 0 4.5-2.0147186 4.5-4.5v-4c0-.2761424-.2238576-.5-.5-.5s-.5.2238576-.5.5v1c0 .2761424-.2238576.5-.5.5s-.5-.2238576-.5-.5v-2c0-.2761424-.2238576-.5-.5-.5s-.5.2238576-.5.5v2c0 .2761424-.2238576.5-.5.5s-.5-.2238576-.5-.5v-3c0-.27614237-.2238576-.5-.5-.5s-.5.22385763-.5.5v3c0 .2761424-.2238576.5-.5.5s-.5-.2238576-.5-.5v-7c0-.27614237-.2238576-.5-.5-.5s-.5.22385763-.5.5zm-1-.00000019v-3.99999981c0-.82842712.6715729-1.5 1.5-1.5s1.5.67157288 1.5 1.5v2.58535285c.1563895-.05527574.3246823-.08535285.5-.08535285.691734 0 1.2741062.46823386 1.4474595 1.10504462.1709946-.06778785.3574166-.10504462.5525405-.10504462.691734 0 1.2741062.46823386 1.4474595 1.1050446.1709946-.0677878.3574166-.1050446.5525405-.1050446.8284271 0 1.5.6715729 1.5 1.5v4c0 3.0375661-2.4624339 5.5-5.5 5.5-1.4157067 0-2.7578784-.6304569-3.6617754-1.720042l-4.41346765-5.3201284c-.44863787-.5408018-.54092268-1.2934775-.23622403-1.9266451l.03569858-.0741821c.28211715-.5862429.87517576-.9590024 1.5257685-.9590024.6015765 0 1.1841143.2109078 1.6462582.5960277l.923834.7698617c.1758761.1465633.4372649.1228007.5838283-.0530753.0620812-.0744975.0960795-.1684025.0960795-.2653765v-2.5474376z"/></svg>